<svg width="297" height="189" viewBox="0 0 297 189" fill="none" xmlns="http://www.w3.org/2000/svg">
<path d="M56 96V79C120 106.6 205.667 90.5 240.5 79V96C153.7 124.8 81.3333 108 56 96Z" fill="white" stroke="white" stroke-width="2"/>
<path d="M56 159V142C120 169.6 205.667 153.5 240.5 142V159C153.7 187.8 81.3333 171 56 159Z" fill="#C53137" stroke="white" stroke-width="2"/>
<path d="M56 126V109C120 136.6 205.667 120.5 240.5 109V126C153.7 154.8 81.3333 138 56 126Z" fill="#C53137" stroke="white" stroke-width="2"/>
<path d="M146 2L3 57.5L146 112L294 57.5L146 2Z" fill="#191B15" stroke="white" stroke-width="2"/>
<path d="M56 143V126C120 153.6 205.667 137.5 240.5 126V143C153.7 171.8 81.3333 155 56 143Z" fill="#009DDC" stroke="white" stroke-width="2"/>
<path d="M57 146.084V128C120.133 157.36 204.639 140.233 239 128C239.251 133.784 239.376 141.425 239.439 146.022C239.459 146.015 239.48 146.007 239.5 146C239.5 152.133 239.5 150.564 239.439 146.022C153.842 176.628 81.9841 158.846 57 146.084Z" fill="#009DDC"/>
<path d="M57 138.084V120C120.48 149.36 204.95 132.233 239.5 120V138.5C153.406 169.136 82.1274 150.849 57 138.084Z" fill="#C53137"/>
<path d="M57 150.084V132C120.48 161.36 204.95 144.233 239.5 132V150.5C153.406 181.136 82.1274 162.849 57 150.084Z" fill="#C53137"/>
<path d="M56 113V96C120 123.6 205.667 107.5 240.5 96V113C153.7 141.8 81.3333 125 56 113Z" fill="white" stroke="white" stroke-width="2"/>
<path d="M156.5 54C156.5 55.147 155.653 56.4944 153.606 57.641C151.607 58.7604 148.744 59.5 145.5 59.5C142.256 59.5 139.393 58.7604 137.394 57.641C135.347 56.4944 134.5 55.147 134.5 54C134.5 52.853 135.347 51.5055 137.394 50.359C139.393 49.2396 142.256 48.5 145.5 48.5C148.744 48.5 151.607 49.2396 153.606 50.359C155.653 51.5055 156.5 52.853 156.5 54Z" fill="#191B15" stroke="#FFFDF8" stroke-width="3"/>
<path d="M156.748 53.1308C179.591 58.8573 224.947 71.2366 227.725 76C230.525 80.8 230.225 124 229.725 145C228.395 146.164 224.941 147.793 221.747 145.019C221.733 145.349 221.725 145.36 221.725 145C221.732 145.006 221.739 145.012 221.747 145.019C221.921 140.755 223.045 83.32 220.725 81C218.229 78.5041 227.196 79.4968 152.591 58.6024C152.033 59.0281 151.786 59.0863 152.225 58.5C152.347 58.5342 152.469 58.5683 152.591 58.6024C153.895 57.6065 156.893 54.6 156.748 53.1308Z" fill="#191B15"/>
<path d="M156.225 53C178.892 58.6667 224.925 71.2 227.725 76C230.525 80.8 230.225 124 229.725 145C228.392 146.167 224.925 147.8 221.725 145C221.725 150 223.225 83.5 220.725 81C218.225 78.5 227.225 79.5 152.225 58.5C150.725 60.5 157.225 55 156.725 53" stroke="#F5F5F5" stroke-width="2"/>
<path d="M56 96V79C120 106.6 205.667 90.5 240.5 79V96C153.7 124.8 81.3333 108 56 96Z" fill="white" stroke="white" stroke-width="2"/>
<path d="M56 159V142C120 169.6 205.667 153.5 240.5 142V159C153.7 187.8 81.3333 171 56 159Z" fill="#C53137" stroke="white" stroke-width="2"/>
<path d="M56 126V109C120 136.6 205.667 120.5 240.5 109V126C153.7 154.8 81.3333 138 56 126Z" fill="#C53137" stroke="white" stroke-width="2"/>
<path d="M146 2L3 57.5L146 112L294 57.5L146 2Z" fill="#191B15" stroke="white" stroke-width="2"/>
<path d="M56 143V126C120 153.6 205.667 137.5 240.5 126V143C153.7 171.8 81.3333 155 56 143Z" fill="#009DDC" stroke="white" stroke-width="2"/>
<path d="M57 146.084V128C120.133 157.36 204.639 140.233 239 128C239.251 133.784 239.376 141.425 239.439 146.022C239.459 146.015 239.48 146.007 239.5 146C239.5 152.133 239.5 150.564 239.439 146.022C153.842 176.628 81.9841 158.846 57 146.084Z" fill="#009DDC"/>
<path d="M57 138.084V120C120.48 149.36 204.95 132.233 239.5 120V138.5C153.406 169.136 82.1274 150.849 57 138.084Z" fill="#C53137"/>
<path d="M57 150.084V132C120.48 161.36 204.95 144.233 239.5 132V150.5C153.406 181.136 82.1274 162.849 57 150.084Z" fill="#C53137"/>
<path d="M56 113V96C120 123.6 205.667 107.5 240.5 96V113C153.7 141.8 81.3333 125 56 113Z" fill="white" stroke="white" stroke-width="2"/>
<path d="M156.5 54C156.5 55.147 155.653 56.4944 153.606 57.641C151.607 58.7604 148.744 59.5 145.5 59.5C142.256 59.5 139.393 58.7604 137.394 57.641C135.347 56.4944 134.5 55.147 134.5 54C134.5 52.853 135.347 51.5055 137.394 50.359C139.393 49.2396 142.256 48.5 145.5 48.5C148.744 48.5 151.607 49.2396 153.606 50.359C155.653 51.5055 156.5 52.853 156.5 54Z" fill="#191B15" stroke="#FFFDF8" stroke-width="3"/>
<path d="M156.748 53.1308C179.591 58.8573 224.947 71.2366 227.725 76C230.525 80.8 230.225 124 229.725 145C228.395 146.164 224.941 147.793 221.747 145.019C221.733 145.349 221.725 145.36 221.725 145C221.732 145.006 221.739 145.012 221.747 145.019C221.921 140.755 223.045 83.32 220.725 81C218.229 78.5041 227.196 79.4968 152.591 58.6024C152.033 59.0281 151.786 59.0863 152.225 58.5C152.347 58.5342 152.469 58.5683 152.591 58.6024C153.895 57.6065 156.893 54.6 156.748 53.1308Z" fill="#191B15"/>
<path d="M156.225 53C178.892 58.6667 224.925 71.2 227.725 76C230.525 80.8 230.225 124 229.725 145C228.392 146.167 224.925 147.8 221.725 145C221.725 150 223.225 83.5 220.725 81C218.225 78.5 227.225 79.5 152.225 58.5C150.725 60.5 157.225 55 156.725 53" stroke="#F5F5F5" stroke-width="2"/>
<path d="M231.712 141C231.712 144.096 228.996 146.75 225.462 146.75C221.928 146.75 219.212 144.096 219.212 141C219.212 137.904 221.928 135.25 225.462 135.25C228.996 135.25 231.712 137.904 231.712 141Z" fill="#191B15" stroke="white" stroke-width="2.5"/>
<path d="M235.998 184C223.498 192 215.462 183.5 216.498 184C214.522 167.007 218.891 151.868 221.407 146.203C222.879 147.515 228.673 146.684 230.105 146.234C230.07 146.156 230.034 146.078 229.998 146C230.571 146 230.531 146.1 230.105 146.234C238.477 164.681 235.998 185.992 235.998 184Z" fill="#191B15"/>
<path d="M221.498 146C221.468 146.066 221.438 146.134 221.407 146.203M221.407 146.203C218.891 151.868 214.522 167.007 216.498 184C215.462 183.5 223.498 192 235.998 184C235.998 186 238.498 164.5 229.998 146C232.498 146 223.316 147.905 221.407 146.203Z" stroke="white" stroke-width="2"/>
</svg>